<?xml version="1.0" standalone="no"?>
<!DOCTYPE svg PUBLIC "-//W3C//DTD SVG 20010904//EN"
 "http://www.w3.org/TR/2001/REC-SVG-20010904/DTD/svg10.dtd">
<svg version="1.0" xmlns="http://www.w3.org/2000/svg"
 width="200.000000pt" height="58.000000pt" viewBox="0 0 200.000000 58.000000"
 preserveAspectRatio="xMidYMid meet">

<g transform="translate(0.000000,58.000000) scale(0.100000,-0.100000)"
fill="#000000" stroke="none">
<path d="M1065 545 c-49 -49 -16 -125 55 -125 44 0 80 35 80 77 0 34 -42 73
-80 73 -19 0 -40 -9 -55 -25z"/>
<path d="M1641 494 c-27 -34 -27 -64 0 -98 20 -26 20 -28 4 -46 -10 -11 -26
-22 -36 -25 -11 -4 -17 -10 -14 -15 8 -14 48 1 83 32 18 15 39 28 47 28 27 0
55 38 55 75 0 48 -29 75 -79 75 -31 0 -44 -6 -60 -26z"/>
<path d="M90 497 l-85 -12 2 -35 c8 -102 42 -403 47 -408 10 -10 203 18 271
39 110 34 151 99 143 230 -4 77 -36 134 -96 171 -44 27 -154 33 -282 15z m187
-117 c1 0 9 -13 18 -30 17 -34 20 -102 4 -132 -11 -21 -74 -52 -88 -44 -5 3
-11 34 -15 68 -4 35 -9 82 -12 105 -7 47 7 56 61 41 16 -4 31 -8 32 -8z"/>
<path d="M1436 468 c-3 -13 -7 -38 -8 -57 l-3 -34 -70 -1 c-80 -1 -114 -17
-145 -69 -29 -46 -27 -133 3 -178 36 -55 119 -90 227 -97 73 -4 90 -2 90 9 0
8 12 106 26 218 14 112 22 207 17 211 -4 4 -36 11 -70 14 -59 7 -63 6 -67 -16z
m-33 -218 c-8 -79 -14 -91 -41 -88 -16 2 -32 13 -41 29 -13 24 -13 29 3 53 14
22 24 27 49 24 21 -2 31 -8 30 -18z"/>
<path d="M545 383 l-50 -18 -3 -62 c-2 -35 -1 -63 0 -63 2 0 21 9 41 19 41 21
80 17 75 -6 -2 -8 -25 -23 -52 -33 -86 -33 -116 -77 -92 -135 23 -53 92 -64
164 -26 15 8 27 7 49 -4 55 -29 99 -13 109 40 8 45 17 44 36 -4 15 -38 17 -39
73 -43 31 -1 60 2 63 7 23 34 131 300 124 306 -4 4 -31 14 -60 22 l-54 15 -13
-31 c-7 -18 -20 -49 -28 -69 -9 -21 -18 -38 -21 -38 -3 0 -15 32 -28 71 -19
61 -25 69 -43 65 -11 -3 -39 -8 -62 -12 -41 -6 -53 -16 -34 -28 4 -3 14 -27
20 -53 21 -83 32 -125 38 -140 4 -11 0 -14 -18 -11 -23 3 -24 8 -29 84 -6 83
-22 124 -59 143 -37 20 -95 21 -146 4z m75 -243 c0 -25 -4 -30 -25 -30 -31 0
-33 23 -3 44 29 21 28 21 28 -14z"/>
<path d="M1125 392 c-53 -3 -57 -5 -38 -15 l21 -12 -23 -55 c-20 -46 -24 -72
-25 -157 l0 -103 76 0 76 0 -5 33 c-3 17 -13 54 -23 80 -15 42 -15 55 -5 95
19 69 24 123 15 130 -5 4 -36 6 -69 4z"/>
<path d="M1689 331 c-23 -24 -29 -38 -29 -74 0 -41 4 -49 42 -81 23 -20 45
-36 50 -36 4 0 8 -7 8 -15 0 -22 -46 -19 -86 6 l-34 21 0 -56 c0 -52 2 -57 28
-68 15 -7 60 -12 100 -13 71 0 75 1 103 33 20 23 29 43 29 68 0 49 -13 69 -65
100 -25 14 -45 30 -45 35 0 18 28 20 65 5 21 -9 39 -16 41 -16 2 0 4 19 4 43
0 40 -3 45 -35 60 -20 10 -60 17 -91 17 -48 0 -59 -4 -85 -29z"/>
</g>
</svg>
